<svg width="393" height="852" viewBox="0 0 393 852" fill="none" xmlns="http://www.w3.org/2000/svg">
<g clip-path="url(#clip0_231_596)">
<path d="M393 0H0V852H393V0Z" fill="white"/>
<path d="M0 847.25V739.86C16.8 706.84 55 678.68 86.98 703.17C95.57 709.75 99.75 715.1 106.69 722.82C122.57 740.48 151.21 736.7 161.53 715.25C167.56 702.73 171.43 692.18 179.43 680.35C210.48 634.38 258.46 631.77 307.76 629.73H321.54C336.45 630.34 378.71 633.57 393 638.18V852.01H4.27C2.79 850.48 1.36 848.9 0 847.26V847.25Z" fill="#C8DDE8"/>
<path d="M24.89 653.62H38.11L44.71 642.18L38.11 630.73H24.89L18.29 642.18L24.89 653.62Z" fill="#C8DDE8"/>
<path d="M53.9 681.74H76.75L88.17 661.96L76.75 642.18H53.9L42.48 661.96L53.9 681.74Z" fill="#C8DDE8"/>
<path d="M393 4.75V112.14C376.2 145.16 338 173.32 306.02 148.83C297.43 142.25 293.25 136.9 286.31 129.18C270.43 111.52 241.79 115.3 231.47 136.75C225.44 149.27 221.57 159.82 213.57 171.65C182.52 217.62 134.54 220.23 85.24 222.27H71.46C56.55 221.66 14.29 218.43 0 213.82V0H388.73C390.21 1.53 391.64 3.11 393 4.75Z" fill="#C8DDE8"/>
<path d="M368.11 198.38H354.89L348.29 209.82L354.89 221.27H368.11L374.71 209.82L368.11 198.38Z" fill="#C8DDE8"/>
<path d="M339.1 170.26H316.25L304.83 190.04L316.25 209.82H339.1L350.52 190.04L339.1 170.26Z" fill="#C8DDE8"/>
</g>
<defs>
<clipPath id="clip0_231_596">
<rect width="393" height="852" fill="white"/>
</clipPath>
</defs>
</svg>
